<mxfile host="app.diagrams.net" modified="2023-10-23T09:21:06.724Z" agent="Mozilla/5.0 (Windows NT 10.0; Win64; x64) AppleWebKit/537.36 (KHTML, like Gecko) Chrome/116.0.5845.888 YaBrowser/23.9.2.888 Yowser/2.5 Safari/537.36" etag="kwagWs3O5IvR2c0FEVzJ" version="22.0.6" type="device">
  <diagram name="Страница — 1" id="OrKYg2rjuyZlXDkUt2P5">
    <mxGraphModel dx="1386" dy="783" grid="1" gridSize="10" guides="1" tooltips="1" connect="1" arrows="1" fold="1" page="1" pageScale="1" pageWidth="827" pageHeight="1169" math="0" shadow="0">
      <root>
        <mxCell id="0" />
        <mxCell id="1" parent="0" />
        <mxCell id="9ZPheEPlJh35rLyLeIx_-9" value="" style="edgeStyle=orthogonalEdgeStyle;rounded=0;orthogonalLoop=1;jettySize=auto;html=1;" parent="1" source="9ZPheEPlJh35rLyLeIx_-1" target="9ZPheEPlJh35rLyLeIx_-2" edge="1">
          <mxGeometry relative="1" as="geometry" />
        </mxCell>
        <mxCell id="9ZPheEPlJh35rLyLeIx_-1" value="Start" style="ellipse;whiteSpace=wrap;html=1;" parent="1" vertex="1">
          <mxGeometry x="61" y="20" width="120" height="80" as="geometry" />
        </mxCell>
        <mxCell id="9ZPheEPlJh35rLyLeIx_-10" value="" style="edgeStyle=orthogonalEdgeStyle;rounded=0;orthogonalLoop=1;jettySize=auto;html=1;" parent="1" source="9ZPheEPlJh35rLyLeIx_-2" target="9ZPheEPlJh35rLyLeIx_-3" edge="1">
          <mxGeometry relative="1" as="geometry" />
        </mxCell>
        <mxCell id="9ZPheEPlJh35rLyLeIx_-2" value="array" style="shape=parallelogram;perimeter=parallelogramPerimeter;whiteSpace=wrap;html=1;fixedSize=1;" parent="1" vertex="1">
          <mxGeometry x="61" y="140" width="120" height="60" as="geometry" />
        </mxCell>
        <mxCell id="9ZPheEPlJh35rLyLeIx_-11" value="" style="edgeStyle=orthogonalEdgeStyle;rounded=0;orthogonalLoop=1;jettySize=auto;html=1;" parent="1" source="9ZPheEPlJh35rLyLeIx_-3" target="9ZPheEPlJh35rLyLeIx_-4" edge="1">
          <mxGeometry relative="1" as="geometry" />
        </mxCell>
        <mxCell id="9ZPheEPlJh35rLyLeIx_-3" value="size = 0,&lt;br&gt;newIndex = 0" style="rounded=0;whiteSpace=wrap;html=1;" parent="1" vertex="1">
          <mxGeometry x="61" y="230" width="120" height="60" as="geometry" />
        </mxCell>
        <mxCell id="9ZPheEPlJh35rLyLeIx_-28" value="" style="edgeStyle=orthogonalEdgeStyle;rounded=0;orthogonalLoop=1;jettySize=auto;html=1;" parent="1" source="9ZPheEPlJh35rLyLeIx_-4" target="9ZPheEPlJh35rLyLeIx_-6" edge="1">
          <mxGeometry relative="1" as="geometry" />
        </mxCell>
        <mxCell id="9ZPheEPlJh35rLyLeIx_-34" value="Yes" style="edgeLabel;html=1;align=center;verticalAlign=middle;resizable=0;points=[];" parent="9ZPheEPlJh35rLyLeIx_-28" vertex="1" connectable="0">
          <mxGeometry x="-0.35" y="-1" relative="1" as="geometry">
            <mxPoint as="offset" />
          </mxGeometry>
        </mxCell>
        <mxCell id="HlCtUTqniG0Gamh1IIbH-3" value="" style="edgeStyle=orthogonalEdgeStyle;rounded=0;orthogonalLoop=1;jettySize=auto;html=1;" edge="1" parent="1" source="9ZPheEPlJh35rLyLeIx_-4" target="HlCtUTqniG0Gamh1IIbH-2">
          <mxGeometry relative="1" as="geometry" />
        </mxCell>
        <mxCell id="HlCtUTqniG0Gamh1IIbH-4" value="No" style="edgeLabel;html=1;align=center;verticalAlign=middle;resizable=0;points=[];" vertex="1" connectable="0" parent="HlCtUTqniG0Gamh1IIbH-3">
          <mxGeometry x="0.2661" y="-2" relative="1" as="geometry">
            <mxPoint as="offset" />
          </mxGeometry>
        </mxCell>
        <mxCell id="9ZPheEPlJh35rLyLeIx_-4" value="i = 0, i &amp;lt; array.Length,&lt;br&gt;&amp;nbsp;i = i + 1" style="shape=hexagon;perimeter=hexagonPerimeter2;whiteSpace=wrap;html=1;fixedSize=1;" parent="1" vertex="1">
          <mxGeometry x="48" y="320" width="146" height="80" as="geometry" />
        </mxCell>
        <mxCell id="9ZPheEPlJh35rLyLeIx_-37" value="" style="edgeStyle=orthogonalEdgeStyle;rounded=0;orthogonalLoop=1;jettySize=auto;html=1;" parent="1" source="9ZPheEPlJh35rLyLeIx_-6" target="9ZPheEPlJh35rLyLeIx_-16" edge="1">
          <mxGeometry relative="1" as="geometry" />
        </mxCell>
        <mxCell id="9ZPheEPlJh35rLyLeIx_-38" value="Yes" style="edgeLabel;html=1;align=center;verticalAlign=middle;resizable=0;points=[];" parent="9ZPheEPlJh35rLyLeIx_-37" vertex="1" connectable="0">
          <mxGeometry x="0.1667" relative="1" as="geometry">
            <mxPoint as="offset" />
          </mxGeometry>
        </mxCell>
        <mxCell id="9ZPheEPlJh35rLyLeIx_-42" style="edgeStyle=orthogonalEdgeStyle;rounded=0;orthogonalLoop=1;jettySize=auto;html=1;entryX=0;entryY=0.5;entryDx=0;entryDy=0;" parent="1" source="9ZPheEPlJh35rLyLeIx_-6" target="9ZPheEPlJh35rLyLeIx_-4" edge="1">
          <mxGeometry relative="1" as="geometry">
            <Array as="points">
              <mxPoint x="28" y="483" />
              <mxPoint x="28" y="360" />
            </Array>
          </mxGeometry>
        </mxCell>
        <mxCell id="9ZPheEPlJh35rLyLeIx_-43" value="No" style="edgeLabel;html=1;align=center;verticalAlign=middle;resizable=0;points=[];" parent="9ZPheEPlJh35rLyLeIx_-42" vertex="1" connectable="0">
          <mxGeometry x="-0.3662" y="1" relative="1" as="geometry">
            <mxPoint as="offset" />
          </mxGeometry>
        </mxCell>
        <mxCell id="9ZPheEPlJh35rLyLeIx_-6" value="array[i] &amp;lt;= 3" style="rhombus;whiteSpace=wrap;html=1;" parent="1" vertex="1">
          <mxGeometry x="48" y="440" width="148" height="85" as="geometry" />
        </mxCell>
        <mxCell id="9ZPheEPlJh35rLyLeIx_-46" style="edgeStyle=orthogonalEdgeStyle;rounded=0;orthogonalLoop=1;jettySize=auto;html=1;entryX=1;entryY=0.5;entryDx=0;entryDy=0;exitX=1;exitY=0.5;exitDx=0;exitDy=0;" parent="1" source="9ZPheEPlJh35rLyLeIx_-16" target="9ZPheEPlJh35rLyLeIx_-6" edge="1">
          <mxGeometry relative="1" as="geometry">
            <Array as="points">
              <mxPoint x="213" y="585" />
              <mxPoint x="213" y="483" />
            </Array>
          </mxGeometry>
        </mxCell>
        <mxCell id="9ZPheEPlJh35rLyLeIx_-16" value="size = size + 1" style="rounded=0;whiteSpace=wrap;html=1;" parent="1" vertex="1">
          <mxGeometry x="62" y="557" width="120" height="55" as="geometry" />
        </mxCell>
        <mxCell id="9ZPheEPlJh35rLyLeIx_-60" value="" style="edgeStyle=orthogonalEdgeStyle;rounded=0;orthogonalLoop=1;jettySize=auto;html=1;" parent="1" source="9ZPheEPlJh35rLyLeIx_-47" target="9ZPheEPlJh35rLyLeIx_-59" edge="1">
          <mxGeometry relative="1" as="geometry" />
        </mxCell>
        <mxCell id="9ZPheEPlJh35rLyLeIx_-63" value="No" style="edgeLabel;html=1;align=center;verticalAlign=middle;resizable=0;points=[];" parent="9ZPheEPlJh35rLyLeIx_-60" vertex="1" connectable="0">
          <mxGeometry x="-0.1688" y="2" relative="1" as="geometry">
            <mxPoint as="offset" />
          </mxGeometry>
        </mxCell>
        <mxCell id="9ZPheEPlJh35rLyLeIx_-64" value="" style="edgeStyle=orthogonalEdgeStyle;rounded=0;orthogonalLoop=1;jettySize=auto;html=1;" parent="1" source="9ZPheEPlJh35rLyLeIx_-47" target="9ZPheEPlJh35rLyLeIx_-50" edge="1">
          <mxGeometry relative="1" as="geometry" />
        </mxCell>
        <mxCell id="9ZPheEPlJh35rLyLeIx_-65" value="Yes" style="edgeLabel;html=1;align=center;verticalAlign=middle;resizable=0;points=[];" parent="9ZPheEPlJh35rLyLeIx_-64" vertex="1" connectable="0">
          <mxGeometry x="-0.6667" relative="1" as="geometry">
            <mxPoint as="offset" />
          </mxGeometry>
        </mxCell>
        <mxCell id="9ZPheEPlJh35rLyLeIx_-47" value="i = 0, i &amp;lt; array.Length,&lt;br&gt;&amp;nbsp;i = i + 1" style="shape=hexagon;perimeter=hexagonPerimeter2;whiteSpace=wrap;html=1;fixedSize=1;" parent="1" vertex="1">
          <mxGeometry x="330" y="440" width="146" height="80" as="geometry" />
        </mxCell>
        <mxCell id="9ZPheEPlJh35rLyLeIx_-52" style="edgeStyle=orthogonalEdgeStyle;rounded=0;orthogonalLoop=1;jettySize=auto;html=1;entryX=0;entryY=0.5;entryDx=0;entryDy=0;exitX=0;exitY=0.5;exitDx=0;exitDy=0;" parent="1" source="9ZPheEPlJh35rLyLeIx_-50" target="9ZPheEPlJh35rLyLeIx_-47" edge="1">
          <mxGeometry relative="1" as="geometry" />
        </mxCell>
        <mxCell id="9ZPheEPlJh35rLyLeIx_-53" value="No" style="edgeLabel;html=1;align=center;verticalAlign=middle;resizable=0;points=[];" parent="9ZPheEPlJh35rLyLeIx_-52" vertex="1" connectable="0">
          <mxGeometry x="-0.0804" y="-1" relative="1" as="geometry">
            <mxPoint as="offset" />
          </mxGeometry>
        </mxCell>
        <mxCell id="9ZPheEPlJh35rLyLeIx_-56" value="" style="edgeStyle=orthogonalEdgeStyle;rounded=0;orthogonalLoop=1;jettySize=auto;html=1;" parent="1" source="9ZPheEPlJh35rLyLeIx_-50" target="9ZPheEPlJh35rLyLeIx_-55" edge="1">
          <mxGeometry relative="1" as="geometry" />
        </mxCell>
        <mxCell id="9ZPheEPlJh35rLyLeIx_-57" value="Yes" style="edgeLabel;html=1;align=center;verticalAlign=middle;resizable=0;points=[];" parent="9ZPheEPlJh35rLyLeIx_-56" vertex="1" connectable="0">
          <mxGeometry x="-0.5745" y="1" relative="1" as="geometry">
            <mxPoint as="offset" />
          </mxGeometry>
        </mxCell>
        <mxCell id="9ZPheEPlJh35rLyLeIx_-50" value="array[i] &amp;lt;= 3" style="rhombus;whiteSpace=wrap;html=1;" parent="1" vertex="1">
          <mxGeometry x="329" y="557" width="148" height="85" as="geometry" />
        </mxCell>
        <mxCell id="9ZPheEPlJh35rLyLeIx_-58" style="edgeStyle=orthogonalEdgeStyle;rounded=0;orthogonalLoop=1;jettySize=auto;html=1;entryX=1;entryY=0.5;entryDx=0;entryDy=0;exitX=1;exitY=0.5;exitDx=0;exitDy=0;" parent="1" source="9ZPheEPlJh35rLyLeIx_-55" target="9ZPheEPlJh35rLyLeIx_-50" edge="1">
          <mxGeometry relative="1" as="geometry" />
        </mxCell>
        <mxCell id="9ZPheEPlJh35rLyLeIx_-55" value="newArray[newIndex] = array[i],&lt;br&gt;newIndex = newIndex + 1" style="rounded=0;whiteSpace=wrap;html=1;" parent="1" vertex="1">
          <mxGeometry x="313" y="675" width="180" height="60" as="geometry" />
        </mxCell>
        <mxCell id="9ZPheEPlJh35rLyLeIx_-62" value="" style="edgeStyle=orthogonalEdgeStyle;rounded=0;orthogonalLoop=1;jettySize=auto;html=1;" parent="1" source="9ZPheEPlJh35rLyLeIx_-59" target="9ZPheEPlJh35rLyLeIx_-61" edge="1">
          <mxGeometry relative="1" as="geometry" />
        </mxCell>
        <mxCell id="9ZPheEPlJh35rLyLeIx_-59" value="newArray" style="shape=document;whiteSpace=wrap;html=1;boundedLbl=1;" parent="1" vertex="1">
          <mxGeometry x="553" y="440" width="120" height="80" as="geometry" />
        </mxCell>
        <mxCell id="9ZPheEPlJh35rLyLeIx_-61" value="End" style="ellipse;whiteSpace=wrap;html=1;" parent="1" vertex="1">
          <mxGeometry x="553" y="562" width="120" height="80" as="geometry" />
        </mxCell>
        <mxCell id="HlCtUTqniG0Gamh1IIbH-1" value="&lt;font style=&quot;font-size: 15px;&quot;&gt;Написать программу, которая из имеющегося массива строк формирует новый &lt;br&gt;массив из строк, длина которых меньше, либо равна 3 символам.Первоначальный &lt;br&gt;массив можно ввести с клавиатуры,либо задать на старте выполнения алгоритма.&lt;br&gt;При решении не рекомендуется пользоваться коллекциями, лучше обойтись &lt;br&gt;исключительно массивами.&lt;/font&gt;" style="text;html=1;align=left;verticalAlign=middle;resizable=0;points=[];autosize=1;strokeColor=none;fillColor=none;strokeWidth=2;" vertex="1" parent="1">
          <mxGeometry x="210" y="40" width="600" height="100" as="geometry" />
        </mxCell>
        <mxCell id="HlCtUTqniG0Gamh1IIbH-5" value="" style="edgeStyle=orthogonalEdgeStyle;rounded=0;orthogonalLoop=1;jettySize=auto;html=1;" edge="1" parent="1" source="HlCtUTqniG0Gamh1IIbH-2" target="9ZPheEPlJh35rLyLeIx_-47">
          <mxGeometry relative="1" as="geometry" />
        </mxCell>
        <mxCell id="HlCtUTqniG0Gamh1IIbH-6" value="Yes" style="edgeLabel;html=1;align=center;verticalAlign=middle;resizable=0;points=[];" vertex="1" connectable="0" parent="HlCtUTqniG0Gamh1IIbH-5">
          <mxGeometry x="0.24" relative="1" as="geometry">
            <mxPoint as="offset" />
          </mxGeometry>
        </mxCell>
        <mxCell id="HlCtUTqniG0Gamh1IIbH-2" value="size,&lt;br style=&quot;border-color: var(--border-color);&quot;&gt;newArray[size]" style="shape=document;whiteSpace=wrap;html=1;boundedLbl=1;" vertex="1" parent="1">
          <mxGeometry x="343" y="320" width="120" height="80" as="geometry" />
        </mxCell>
      </root>
    </mxGraphModel>
  </diagram>
</mxfile>
